# xmcd
#
# Track frame offsets:
#	150
#	13747
#	24552
#	40305
#	55382
#	67585
#	83082
#	102225
#	114825
#	127620
#	144602
#	155632
#
# Disc length: 2242
#
# Revision: 4
# Processed by: cddbd v1.5.1PL0 Copyright (c) Steve Scherf et al.
# Submitted via: EasyCDDAExtractor 5.0.5.1
# Normalized: r3:DSETVAR1
#
DISCID=9008c00c
DTITLE=Various Artist - The Blues Collection-Disk 3
DYEAR=1996
DGENRE=Blues
TTITLE0=John Lee Hooker - Trouble Blues
TTITLE1=Ray Charles - Hey Now
TTITLE2=Billie Holiday - Easy To Remember
TTITLE3=Ray Charles - I'm Wonderin' And Wonderin'
TTITLE4=John Lee Hooker - Whiskey And Wimmen
TTITLE5=Johnny Otis - Bad Luck Shadow
TTITLE6=Richard Berry - Round About Midnight
TTITLE7=Amos Milbourne - Trouble In Mind
TTITLE8=Eddie "Clean Head" Vinson - Alimony Blues
TTITLE9=John Lee Hooker - Process
TTITLE10=Ray Charles - I Wonder Who's Kissing Her Now
TTITLE11=Elmore James - The Sky Is Crying
EXTD=YEAR: 1996 ID3G:   0
EXTT0=
EXTT1=
EXTT2=
EXTT3=
EXTT4=
EXTT5=
EXTT6=
EXTT7=
EXTT8=
EXTT9=
EXTT10=
EXTT11=
PLAYORDER=
